<svg width="800" height="600" xmlns="http://www.w3.org/2000/svg"><style>.nl{font:10px sans-serif;fill:#333333}.dl{font:8px sans-serif;fill:#333333}</style><rect width="100%" height="100%" fill="white"/><g class="clock-tree"><line x1="300" y1="300" x2="300" y2="300" stroke="#666666" stroke-width="2" stroke-linecap="round"/><line x1="300" y1="300" x2="300" y2="100" stroke="#666666" stroke-width="2" stroke-linecap="round"/><text x="300" y="195" class="dl" text-anchor="middle">40</text><line x1="300" y1="300" x2="500" y2="300" stroke="#666666" stroke-width="2" stroke-linecap="round"/><text x="400" y="295" class="dl" text-anchor="middle">40</text><line x1="300" y1="300" x2="300" y2="300" stroke="#666666" stroke-width="2" stroke-linecap="round"/><line x1="300" y1="300" x2="100" y2="300" stroke="#666666" stroke-width="2" stroke-linecap="round"/><text x="200" y="295" class="dl" text-anchor="middle">40</text><line x1="300" y1="300" x2="300" y2="500" stroke="#666666" stroke-width="2" stroke-linecap="round"/><text x="300" y="395" class="dl" text-anchor="middle">40</text><circle cx="300" cy="300" r="10" fill="#F44336" stroke="#333" stroke-width="1"/><text x="300" y="285" class="nl" text-anchor="middle">n2</text><text x="300" y="322" class="dl" text-anchor="middle">d:0.0</text><circle cx="300" cy="300" r="6" fill="#2196F3" stroke="#333" stroke-width="1"/><text x="300" y="289" class="nl" text-anchor="middle">n0</text><text x="300" y="318" class="dl" text-anchor="middle">d:0.0</text><circle cx="300" cy="100" r="8" fill="#4CAF50" stroke="#333" stroke-width="1"/><text x="300" y="87" class="nl" text-anchor="middle">s3</text><text x="300" y="120" class="dl" text-anchor="middle">d:20.0</text><text x="300" y="130" class="dl" text-anchor="middle">c:1.0</text><circle cx="500" cy="300" r="8" fill="#4CAF50" stroke="#333" stroke-width="1"/><text x="500" y="287" class="nl" text-anchor="middle">s2</text><text x="500" y="320" class="dl" text-anchor="middle">d:20.0</text><text x="500" y="330" class="dl" text-anchor="middle">c:1.0</text><circle cx="300" cy="300" r="6" fill="#2196F3" stroke="#333" stroke-width="1"/><text x="300" y="289" class="nl" text-anchor="middle">n1</text><text x="300" y="318" class="dl" text-anchor="middle">d:0.0</text><circle cx="100" cy="300" r="8" fill="#4CAF50" stroke="#333" stroke-width="1"/><text x="100" y="287" class="nl" text-anchor="middle">s4</text><text x="100" y="320" class="dl" text-anchor="middle">d:20.0</text><text x="100" y="330" class="dl" text-anchor="middle">c:1.0</text><circle cx="300" cy="500" r="8" fill="#4CAF50" stroke="#333" stroke-width="1"/><text x="300" y="487" class="nl" text-anchor="middle">s1</text><text x="300" y="520" class="dl" text-anchor="middle">d:20.0</text><text x="300" y="530" class="dl" text-anchor="middle">c:1.0</text><g class="analysis-info"><rect x="10" y="10" width="220" height="140" fill="white" stroke="#ccc" stroke-width="1" rx="5"/><rect x="10" y="10" width="220" height="20" fill="#f0f0f0" stroke="#ccc" stroke-width="1" rx="5"/><text x="20" y="25" font-family="sans-serif" font-size="12" font-weight="bold" fill="#333">Clock Tree Analysis</text><text x="20" y="45" font-family="monospace" font-size="11" fill="#333"><tspan x="20" y="61">Delay Model: dyn physdes::dme_algorithm::DelayCalculator</tspan><tspan x="20" y="77">Max Delay: 20.000</tspan><tspan x="20" y="93">Min Delay: 20.000</tspan><tspan x="20" y="109">Skew: 0.000</tspan><tspan x="20" y="125">Total WL: 160</tspan><tspan x="20" y="141">Sinks: 4</tspan></text></g></g></svg>