<svg width="1200" height="600" xmlns="http://www.w3.org/2000/svg"><rect width="100%" height="100%" fill="white"/><style>.nl{font:8px sans-serif;fill:#333}.dl{font:7px sans-serif;fill:#666}</style><text x="300" y="20" font-family="sans-serif" font-size="14" font-weight="bold" fill="#333" text-anchor="middle">Linear Delay</text><g transform="translate(10, 40)"><line x1="328" y1="232" x2="232" y2="232" stroke="#666666" stroke-width="2" stroke-linecap="round"/><text x="280" y="227" class="dl" text-anchor="middle">20</text><line x1="232" y1="232" x2="88" y2="280" stroke="#666666" stroke-width="2" stroke-linecap="round"/><text x="160" y="251" class="dl" text-anchor="middle">40</text><line x1="232" y1="232" x2="232" y2="136" stroke="#666666" stroke-width="2" stroke-linecap="round"/><text x="232" y="179" class="dl" text-anchor="middle">20</text><line x1="232" y1="136" x2="280" y2="88" stroke="#666666" stroke-width="2" stroke-linecap="round"/><text x="256" y="107" class="dl" text-anchor="middle">20</text><line x1="232" y1="136" x2="136" y2="136" stroke="#666666" stroke-width="2" stroke-linecap="round"/><text x="184" y="131" class="dl" text-anchor="middle">20</text><line x1="328" y1="232" x2="328" y2="328" stroke="#666666" stroke-width="2" stroke-linecap="round"/><text x="328" y="275" class="dl" text-anchor="middle">20</text><line x1="328" y1="328" x2="280" y2="376" stroke="#666666" stroke-width="2" stroke-linecap="round"/><text x="304" y="347" class="dl" text-anchor="middle">20</text><line x1="280" y1="376" x2="280" y2="280" stroke="#666666" stroke-width="2" stroke-linecap="round"/><text x="280" y="323" class="dl" text-anchor="middle">20</text><line x1="280" y1="376" x2="280" y2="472" stroke="#666666" stroke-width="2" stroke-linecap="round"/><text x="280" y="419" class="dl" text-anchor="middle">20</text><line x1="328" y1="328" x2="424" y2="328" stroke="#666666" stroke-width="2" stroke-linecap="round"/><text x="376" y="323" class="dl" text-anchor="middle">20</text><line x1="424" y1="328" x2="472" y2="280" stroke="#666666" stroke-width="2" stroke-linecap="round"/><text x="448" y="299" class="dl" text-anchor="middle">20</text><line x1="424" y1="328" x2="424" y2="424" stroke="#666666" stroke-width="2" stroke-linecap="round"/><text x="424" y="371" class="dl" text-anchor="middle">20</text><circle cx="328" cy="232" r="8" fill="#F44336" stroke="#333" stroke-width="1"/><text x="328" y="219" class="nl" text-anchor="middle">n5</text><text x="328" y="252" class="dl" text-anchor="middle">d:0.0</text><circle cx="232" cy="232" r="4" fill="#2196F3" stroke="#333" stroke-width="1"/><text x="232" y="223" class="nl" text-anchor="middle">n1</text><text x="232" y="248" class="dl" text-anchor="middle">d:10.0</text><circle cx="88" cy="280" r="6" fill="#4CAF50" stroke="#333" stroke-width="1"/><text x="88" y="269" class="nl" text-anchor="middle">s1</text><text x="88" y="298" class="dl" text-anchor="middle">d:30.0</text><text x="88" y="308" class="dl" text-anchor="middle">c:1.0</text><circle cx="232" cy="136" r="4" fill="#2196F3" stroke="#333" stroke-width="1"/><text x="232" y="127" class="nl" text-anchor="middle">n0</text><text x="232" y="152" class="dl" text-anchor="middle">d:20.0</text><circle cx="280" cy="88" r="6" fill="#4CAF50" stroke="#333" stroke-width="1"/><text x="280" y="77" class="nl" text-anchor="middle">s4</text><text x="280" y="106" class="dl" text-anchor="middle">d:30.0</text><text x="280" y="116" class="dl" text-anchor="middle">c:1.0</text><circle cx="136" cy="136" r="6" fill="#4CAF50" stroke="#333" stroke-width="1"/><text x="136" y="125" class="nl" text-anchor="middle">s5</text><text x="136" y="154" class="dl" text-anchor="middle">d:30.0</text><text x="136" y="164" class="dl" text-anchor="middle">c:1.0</text><circle cx="328" cy="328" r="4" fill="#2196F3" stroke="#333" stroke-width="1"/><text x="328" y="319" class="nl" text-anchor="middle">n4</text><text x="328" y="344" class="dl" text-anchor="middle">d:10.0</text><circle cx="280" cy="376" r="4" fill="#2196F3" stroke="#333" stroke-width="1"/><text x="280" y="367" class="nl" text-anchor="middle">n2</text><text x="280" y="392" class="dl" text-anchor="middle">d:20.0</text><circle cx="280" cy="280" r="6" fill="#4CAF50" stroke="#333" stroke-width="1"/><text x="280" y="269" class="nl" text-anchor="middle">s7</text><text x="280" y="298" class="dl" text-anchor="middle">d:30.0</text><text x="280" y="308" class="dl" text-anchor="middle">c:1.0</text><circle cx="280" cy="472" r="6" fill="#4CAF50" stroke="#333" stroke-width="1"/><text x="280" y="461" class="nl" text-anchor="middle">s3</text><text x="280" y="490" class="dl" text-anchor="middle">d:30.0</text><text x="280" y="500" class="dl" text-anchor="middle">c:1.0</text><circle cx="424" cy="328" r="4" fill="#2196F3" stroke="#333" stroke-width="1"/><text x="424" y="319" class="nl" text-anchor="middle">n3</text><text x="424" y="344" class="dl" text-anchor="middle">d:20.0</text><circle cx="472" cy="280" r="6" fill="#4CAF50" stroke="#333" stroke-width="1"/><text x="472" y="269" class="nl" text-anchor="middle">s2</text><text x="472" y="298" class="dl" text-anchor="middle">d:30.0</text><text x="472" y="308" class="dl" text-anchor="middle">c:1.0</text><circle cx="424" cy="424" r="6" fill="#4CAF50" stroke="#333" stroke-width="1"/><text x="424" y="413" class="nl" text-anchor="middle">s6</text><text x="424" y="442" class="dl" text-anchor="middle">d:30.0</text><text x="424" y="452" class="dl" text-anchor="middle">c:1.0</text><g class="analysis-info"><rect x="10" y="10" width="220" height="140" fill="white" stroke="#ccc" stroke-width="1" rx="5"/><rect x="10" y="10" width="220" height="20" fill="#f0f0f0" stroke="#ccc" stroke-width="1" rx="5"/><text x="20" y="25" font-family="sans-serif" font-size="12" font-weight="bold" fill="#333">Clock Tree Analysis</text><text x="20" y="45" font-family="monospace" font-size="11" fill="#333"><tspan x="20" y="61">Delay Model: dyn physdes::dme_algorithm::DelayCalculator</tspan><tspan x="20" y="77">Max Delay: 30.000</tspan><tspan x="20" y="93">Min Delay: 30.000</tspan><tspan x="20" y="109">Skew: 0.000</tspan><tspan x="20" y="125">Total WL: 260</tspan><tspan x="20" y="141">Sinks: 7</tspan></text></g></g><text x="900" y="20" font-family="sans-serif" font-size="14" font-weight="bold" fill="#333" text-anchor="middle">Elmore Delay</text><g transform="translate(610, 40)"><line x1="328" y1="236.79999999999998" x2="232" y2="208" stroke="#666666" stroke-width="2" stroke-linecap="round"/><text x="280" y="217.39999999999998" class="dl" text-anchor="middle">26</text><line x1="232" y1="208" x2="88" y2="280" stroke="#666666" stroke-width="2" stroke-linecap="round"/><text x="160" y="239" class="dl" text-anchor="middle">45</text><line x1="232" y1="208" x2="232" y2="136" stroke="#666666" stroke-width="2" stroke-linecap="round"/><text x="232" y="167" class="dl" text-anchor="middle">15</text><line x1="232" y1="136" x2="280" y2="88" stroke="#666666" stroke-width="2" stroke-linecap="round"/><text x="256" y="107" class="dl" text-anchor="middle">20</text><line x1="232" y1="136" x2="136" y2="136" stroke="#666666" stroke-width="2" stroke-linecap="round"/><text x="184" y="131" class="dl" text-anchor="middle">20</text><line x1="328" y1="236.79999999999998" x2="328" y2="328" stroke="#666666" stroke-width="2" stroke-linecap="round"/><text x="328" y="277.4" class="dl" text-anchor="middle">19</text><line x1="328" y1="328" x2="280" y2="376" stroke="#666666" stroke-width="2" stroke-linecap="round"/><text x="304" y="347" class="dl" text-anchor="middle">20</text><line x1="280" y1="376" x2="280" y2="280" stroke="#666666" stroke-width="2" stroke-linecap="round"/><text x="280" y="323" class="dl" text-anchor="middle">20</text><line x1="280" y1="376" x2="280" y2="472" stroke="#666666" stroke-width="2" stroke-linecap="round"/><text x="280" y="419" class="dl" text-anchor="middle">20</text><line x1="328" y1="328" x2="424" y2="328" stroke="#666666" stroke-width="2" stroke-linecap="round"/><text x="376" y="323" class="dl" text-anchor="middle">20</text><line x1="424" y1="328" x2="472" y2="280" stroke="#666666" stroke-width="2" stroke-linecap="round"/><text x="448" y="299" class="dl" text-anchor="middle">20</text><line x1="424" y1="328" x2="424" y2="424" stroke="#666666" stroke-width="2" stroke-linecap="round"/><text x="424" y="371" class="dl" text-anchor="middle">20</text><circle cx="328" cy="236.79999999999998" r="8" fill="#F44336" stroke="#333" stroke-width="1"/><text x="328" y="223.79999999999998" class="nl" text-anchor="middle">n5</text><text x="328" y="256.79999999999995" class="dl" text-anchor="middle">d:0.0</text><circle cx="232" cy="208" r="4" fill="#2196F3" stroke="#333" stroke-width="1"/><text x="232" y="199" class="nl" text-anchor="middle">n1</text><text x="232" y="224" class="dl" text-anchor="middle">d:37.2</text><circle cx="88" cy="280" r="6" fill="#4CAF50" stroke="#333" stroke-width="1"/><text x="88" y="269" class="nl" text-anchor="middle">s1</text><text x="88" y="298" class="dl" text-anchor="middle">d:51.8</text><text x="88" y="308" class="dl" text-anchor="middle">c:1.0</text><circle cx="232" cy="136" r="4" fill="#2196F3" stroke="#333" stroke-width="1"/><text x="232" y="127" class="nl" text-anchor="middle">n0</text><text x="232" y="152" class="dl" text-anchor="middle">d:47.3</text><circle cx="280" cy="88" r="6" fill="#4CAF50" stroke="#333" stroke-width="1"/><text x="280" y="77" class="nl" text-anchor="middle">s4</text><text x="280" y="106" class="dl" text-anchor="middle">d:51.3</text><text x="280" y="116" class="dl" text-anchor="middle">c:1.0</text><circle cx="136" cy="136" r="6" fill="#4CAF50" stroke="#333" stroke-width="1"/><text x="136" y="125" class="nl" text-anchor="middle">s5</text><text x="136" y="154" class="dl" text-anchor="middle">d:51.3</text><text x="136" y="164" class="dl" text-anchor="middle">c:1.0</text><circle cx="328" cy="328" r="4" fill="#2196F3" stroke="#333" stroke-width="1"/><text x="328" y="319" class="nl" text-anchor="middle">n4</text><text x="328" y="344" class="dl" text-anchor="middle">d:32.2</text><circle cx="280" cy="376" r="4" fill="#2196F3" stroke="#333" stroke-width="1"/><text x="280" y="367" class="nl" text-anchor="middle">n2</text><text x="280" y="392" class="dl" text-anchor="middle">d:46.2</text><circle cx="280" cy="280" r="6" fill="#4CAF50" stroke="#333" stroke-width="1"/><text x="280" y="269" class="nl" text-anchor="middle">s7</text><text x="280" y="298" class="dl" text-anchor="middle">d:50.2</text><text x="280" y="308" class="dl" text-anchor="middle">c:1.0</text><circle cx="280" cy="472" r="6" fill="#4CAF50" stroke="#333" stroke-width="1"/><text x="280" y="461" class="nl" text-anchor="middle">s3</text><text x="280" y="490" class="dl" text-anchor="middle">d:50.2</text><text x="280" y="500" class="dl" text-anchor="middle">c:1.0</text><circle cx="424" cy="328" r="4" fill="#2196F3" stroke="#333" stroke-width="1"/><text x="424" y="319" class="nl" text-anchor="middle">n3</text><text x="424" y="344" class="dl" text-anchor="middle">d:46.2</text><circle cx="472" cy="280" r="6" fill="#4CAF50" stroke="#333" stroke-width="1"/><text x="472" y="269" class="nl" text-anchor="middle">s2</text><text x="472" y="298" class="dl" text-anchor="middle">d:50.2</text><text x="472" y="308" class="dl" text-anchor="middle">c:1.0</text><circle cx="424" cy="424" r="6" fill="#4CAF50" stroke="#333" stroke-width="1"/><text x="424" y="413" class="nl" text-anchor="middle">s6</text><text x="424" y="442" class="dl" text-anchor="middle">d:50.2</text><text x="424" y="452" class="dl" text-anchor="middle">c:1.0</text><g class="analysis-info"><rect x="10" y="10" width="220" height="140" fill="white" stroke="#ccc" stroke-width="1" rx="5"/><rect x="10" y="10" width="220" height="20" fill="#f0f0f0" stroke="#ccc" stroke-width="1" rx="5"/><text x="20" y="25" font-family="sans-serif" font-size="12" font-weight="bold" fill="#333">Clock Tree Analysis</text><text x="20" y="45" font-family="monospace" font-size="11" fill="#333"><tspan x="20" y="61">Delay Model: dyn physdes::dme_algorithm::DelayCalculator</tspan><tspan x="20" y="77">Max Delay: 51.805</tspan><tspan x="20" y="93">Min Delay: 50.205</tspan><tspan x="20" y="109">Skew: 1.600</tspan><tspan x="20" y="125">Total WL: 265</tspan><tspan x="20" y="141">Sinks: 7</tspan></text></g></g></svg>