<svg width="800" height="600" xmlns="http://www.w3.org/2000/svg"><style>.nl{font:10px sans-serif;fill:#333333}.dl{font:8px sans-serif;fill:#333333}</style><rect width="100%" height="100%" fill="white"/><g class="clock-tree"><line x1="300" y1="216.66666666666669" x2="133.33333333333334" y2="133.33333333333334" stroke="#666666" stroke-width="2" stroke-linecap="round"/><text x="216.66666666666669" y="170" class="dl" text-anchor="middle">30</text><line x1="300" y1="216.66666666666669" x2="300" y2="216.66666666666669" stroke="#666666" stroke-width="2" stroke-linecap="round"/><line x1="300" y1="216.66666666666669" x2="300" y2="466.6666666666667" stroke="#666666" stroke-width="2" stroke-linecap="round"/><text x="300" y="336.6666666666667" class="dl" text-anchor="middle">30</text><line x1="300" y1="216.66666666666669" x2="466.6666666666667" y2="133.33333333333334" stroke="#666666" stroke-width="2" stroke-linecap="round"/><text x="383.33333333333337" y="170" class="dl" text-anchor="middle">30</text><circle cx="300" cy="216.66666666666669" r="10" fill="#F44336" stroke="#333" stroke-width="1"/><text x="300" y="201.66666666666669" class="nl" text-anchor="middle">n1</text><text x="300" y="238.66666666666669" class="dl" text-anchor="middle">d:0.0</text><circle cx="133.33333333333334" cy="133.33333333333334" r="8" fill="#4CAF50" stroke="#333" stroke-width="1"/><text x="133.33333333333334" y="120.33333333333334" class="nl" text-anchor="middle">s1</text><text x="133.33333333333334" y="153.33333333333334" class="dl" text-anchor="middle">d:15.0</text><text x="133.33333333333334" y="163.33333333333334" class="dl" text-anchor="middle">c:0.5</text><circle cx="300" cy="216.66666666666669" r="6" fill="#2196F3" stroke="#333" stroke-width="1"/><text x="300" y="205.66666666666669" class="nl" text-anchor="middle">n0</text><text x="300" y="234.66666666666669" class="dl" text-anchor="middle">d:0.0</text><circle cx="300" cy="466.6666666666667" r="8" fill="#4CAF50" stroke="#333" stroke-width="1"/><text x="300" y="453.6666666666667" class="nl" text-anchor="middle">s3</text><text x="300" y="486.6666666666667" class="dl" text-anchor="middle">d:15.0</text><text x="300" y="496.6666666666667" class="dl" text-anchor="middle">c:1.0</text><circle cx="466.6666666666667" cy="133.33333333333334" r="8" fill="#4CAF50" stroke="#333" stroke-width="1"/><text x="466.6666666666667" y="120.33333333333334" class="nl" text-anchor="middle">s2</text><text x="466.6666666666667" y="153.33333333333334" class="dl" text-anchor="middle">d:15.0</text><text x="466.6666666666667" y="163.33333333333334" class="dl" text-anchor="middle">c:3.0</text><g class="analysis-info"><rect x="10" y="10" width="220" height="140" fill="white" stroke="#ccc" stroke-width="1" rx="5"/><rect x="10" y="10" width="220" height="20" fill="#f0f0f0" stroke="#ccc" stroke-width="1" rx="5"/><text x="20" y="25" font-family="sans-serif" font-size="12" font-weight="bold" fill="#333">Clock Tree Analysis</text><text x="20" y="45" font-family="monospace" font-size="11" fill="#333"><tspan x="20" y="61">Delay Model: dyn physdes::dme_algorithm::DelayCalculator</tspan><tspan x="20" y="77">Max Delay: 15.000</tspan><tspan x="20" y="93">Min Delay: 15.000</tspan><tspan x="20" y="109">Skew: 0.000</tspan><tspan x="20" y="125">Total WL: 90</tspan><tspan x="20" y="141">Sinks: 3</tspan></text></g></g></svg>