<svg width="800" height="600" xmlns="http://www.w3.org/2000/svg"><style>.nl{font:10px sans-serif;fill:#333333}.dl{font:8px sans-serif;fill:#333333}</style><rect width="100%" height="100%" fill="white"/><g class="clock-tree"><line x1="300" y1="355.55555555555554" x2="300" y2="161.11111111111111" stroke="#666666" stroke-width="2" stroke-linecap="round"/><text x="300" y="253.33333333333331" class="dl" text-anchor="middle">35</text><line x1="300" y1="161.11111111111111" x2="216.66666666666666" y2="105.55555555555556" stroke="#666666" stroke-width="2" stroke-linecap="round"/><text x="258.3333333333333" y="128.33333333333334" class="dl" text-anchor="middle">25</text><line x1="300" y1="161.11111111111111" x2="438.88888888888886" y2="161.11111111111111" stroke="#666666" stroke-width="2" stroke-linecap="round"/><text x="369.44444444444446" y="156.11111111111111" class="dl" text-anchor="middle">25</text><line x1="300" y1="355.55555555555554" x2="283.3333333333333" y2="366.66666666666663" stroke="#666666" stroke-width="2" stroke-linecap="round"/><text x="291.66666666666663" y="356.1111111111111" class="dl" text-anchor="middle">5</text><line x1="283.3333333333333" y1="366.66666666666663" x2="105.55555555555556" y2="494.44444444444446" stroke="#666666" stroke-width="2" stroke-linecap="round"/><text x="194.44444444444443" y="425.55555555555554" class="dl" text-anchor="middle">55</text><line x1="283.3333333333333" y1="366.66666666666663" x2="411.1111111111111" y2="327.77777777777777" stroke="#666666" stroke-width="2" stroke-linecap="round"/><text x="347.2222222222222" y="342.2222222222222" class="dl" text-anchor="middle">30</text><line x1="411.1111111111111" y1="327.77777777777777" x2="550" y2="327.77777777777777" stroke="#666666" stroke-width="2" stroke-linecap="round"/><text x="480.55555555555554" y="322.77777777777777" class="dl" text-anchor="middle">25</text><line x1="411.1111111111111" y1="327.77777777777777" x2="327.77777777777777" y2="383.3333333333333" stroke="#666666" stroke-width="2" stroke-linecap="round"/><text x="369.44444444444446" y="350.55555555555554" class="dl" text-anchor="middle">25</text><circle cx="300" cy="355.55555555555554" r="10" fill="#F44336" stroke="#333" stroke-width="1"/><text x="300" y="340.55555555555554" class="nl" text-anchor="middle">n3</text><text x="300" y="377.55555555555554" class="dl" text-anchor="middle">d:0.0</text><circle cx="300" cy="161.11111111111111" r="6" fill="#2196F3" stroke="#333" stroke-width="1"/><text x="300" y="150.11111111111111" class="nl" text-anchor="middle">n0</text><text x="300" y="179.11111111111111" class="dl" text-anchor="middle">d:17.5</text><circle cx="216.66666666666666" cy="105.55555555555556" r="8" fill="#4CAF50" stroke="#333" stroke-width="1"/><text x="216.66666666666666" y="92.55555555555556" class="nl" text-anchor="middle">s2</text><text x="216.66666666666666" y="125.55555555555556" class="dl" text-anchor="middle">d:30.0</text><text x="216.66666666666666" y="135.55555555555554" class="dl" text-anchor="middle">c:1.0</text><circle cx="438.88888888888886" cy="161.11111111111111" r="8" fill="#4CAF50" stroke="#333" stroke-width="1"/><text x="438.88888888888886" y="148.11111111111111" class="nl" text-anchor="middle">s4</text><text x="438.88888888888886" y="181.11111111111111" class="dl" text-anchor="middle">d:30.0</text><text x="438.88888888888886" y="191.11111111111111" class="dl" text-anchor="middle">c:1.0</text><circle cx="283.3333333333333" cy="366.66666666666663" r="6" fill="#2196F3" stroke="#333" stroke-width="1"/><text x="283.3333333333333" y="355.66666666666663" class="nl" text-anchor="middle">n2</text><text x="283.3333333333333" y="384.66666666666663" class="dl" text-anchor="middle">d:2.5</text><circle cx="105.55555555555556" cy="494.44444444444446" r="8" fill="#4CAF50" stroke="#333" stroke-width="1"/><text x="105.55555555555556" y="481.44444444444446" class="nl" text-anchor="middle">s1</text><text x="105.55555555555556" y="514.4444444444445" class="dl" text-anchor="middle">d:30.0</text><text x="105.55555555555556" y="524.4444444444445" class="dl" text-anchor="middle">c:1.0</text><circle cx="411.1111111111111" cy="327.77777777777777" r="6" fill="#2196F3" stroke="#333" stroke-width="1"/><text x="411.1111111111111" y="316.77777777777777" class="nl" text-anchor="middle">n1</text><text x="411.1111111111111" y="345.77777777777777" class="dl" text-anchor="middle">d:17.5</text><circle cx="550" cy="327.77777777777777" r="8" fill="#4CAF50" stroke="#333" stroke-width="1"/><text x="550" y="314.77777777777777" class="nl" text-anchor="middle">s5</text><text x="550" y="347.77777777777777" class="dl" text-anchor="middle">d:30.0</text><text x="550" y="357.77777777777777" class="dl" text-anchor="middle">c:1.0</text><circle cx="327.77777777777777" cy="383.3333333333333" r="8" fill="#4CAF50" stroke="#333" stroke-width="1"/><text x="327.77777777777777" y="370.3333333333333" class="nl" text-anchor="middle">s3</text><text x="327.77777777777777" y="403.3333333333333" class="dl" text-anchor="middle">d:30.0</text><text x="327.77777777777777" y="413.3333333333333" class="dl" text-anchor="middle">c:1.0</text><g class="analysis-info"><rect x="10" y="10" width="220" height="140" fill="white" stroke="#ccc" stroke-width="1" rx="5"/><rect x="10" y="10" width="220" height="20" fill="#f0f0f0" stroke="#ccc" stroke-width="1" rx="5"/><text x="20" y="25" font-family="sans-serif" font-size="12" font-weight="bold" fill="#333">Clock Tree Analysis</text><text x="20" y="45" font-family="monospace" font-size="11" fill="#333"><tspan x="20" y="61">Delay Model: dyn physdes::dme_algorithm::DelayCalculator</tspan><tspan x="20" y="77">Max Delay: 30.000</tspan><tspan x="20" y="93">Min Delay: 30.000</tspan><tspan x="20" y="109">Skew: 0.000</tspan><tspan x="20" y="125">Total WL: 225</tspan><tspan x="20" y="141">Sinks: 5</tspan></text></g></g></svg>