<svg width="800" height="600" xmlns="http://www.w3.org/2000/svg"><style>.nl{font:10px sans-serif;fill:#333333}.dl{font:8px sans-serif;fill:#333333}</style><rect width="100%" height="100%" fill="white"/><g class="clock-tree"><line x1="300" y1="300" x2="300" y2="258.33333333333337" stroke="#666666" stroke-width="2" stroke-linecap="round"/><text x="300" y="274.1666666666667" class="dl" text-anchor="middle">10</text><line x1="300" y1="258.33333333333337" x2="258.33333333333337" y2="154.16666666666669" stroke="#666666" stroke-width="2" stroke-linecap="round"/><text x="279.1666666666667" y="201.25000000000003" class="dl" text-anchor="middle">35</text><line x1="258.33333333333337" y1="154.16666666666669" x2="300" y2="91.66666666666667" stroke="#666666" stroke-width="2" stroke-linecap="round"/><text x="279.1666666666667" y="117.91666666666669" class="dl" text-anchor="middle">25</text><line x1="258.33333333333337" y1="154.16666666666669" x2="154.16666666666669" y2="154.16666666666669" stroke="#666666" stroke-width="2" stroke-linecap="round"/><text x="206.25000000000003" y="149.16666666666669" class="dl" text-anchor="middle">25</text><line x1="300" y1="258.33333333333337" x2="445.83333333333337" y2="258.33333333333337" stroke="#666666" stroke-width="2" stroke-linecap="round"/><text x="372.9166666666667" y="253.33333333333337" class="dl" text-anchor="middle">35</text><line x1="445.83333333333337" y1="258.33333333333337" x2="445.83333333333337" y2="154.16666666666669" stroke="#666666" stroke-width="2" stroke-linecap="round"/><text x="445.83333333333337" y="201.25000000000003" class="dl" text-anchor="middle">25</text><line x1="445.83333333333337" y1="258.33333333333337" x2="508.33333333333337" y2="300" stroke="#666666" stroke-width="2" stroke-linecap="round"/><text x="477.08333333333337" y="274.1666666666667" class="dl" text-anchor="middle">25</text><line x1="300" y1="300" x2="300" y2="341.6666666666667" stroke="#666666" stroke-width="2" stroke-linecap="round"/><text x="300" y="315.83333333333337" class="dl" text-anchor="middle">10</text><line x1="300" y1="341.6666666666667" x2="154.16666666666669" y2="341.6666666666667" stroke="#666666" stroke-width="2" stroke-linecap="round"/><text x="227.08333333333334" y="336.6666666666667" class="dl" text-anchor="middle">35</text><line x1="154.16666666666669" y1="341.6666666666667" x2="91.66666666666667" y2="300" stroke="#666666" stroke-width="2" stroke-linecap="round"/><text x="122.91666666666669" y="315.83333333333337" class="dl" text-anchor="middle">25</text><line x1="154.16666666666669" y1="341.6666666666667" x2="154.16666666666669" y2="445.83333333333337" stroke="#666666" stroke-width="2" stroke-linecap="round"/><text x="154.16666666666669" y="388.75" class="dl" text-anchor="middle">25</text><line x1="300" y1="341.6666666666667" x2="341.6666666666667" y2="445.83333333333337" stroke="#666666" stroke-width="2" stroke-linecap="round"/><text x="320.83333333333337" y="388.75" class="dl" text-anchor="middle">35</text><line x1="341.6666666666667" y1="445.83333333333337" x2="445.83333333333337" y2="445.83333333333337" stroke="#666666" stroke-width="2" stroke-linecap="round"/><text x="393.75" y="440.83333333333337" class="dl" text-anchor="middle">25</text><line x1="341.6666666666667" y1="445.83333333333337" x2="300" y2="508.33333333333337" stroke="#666666" stroke-width="2" stroke-linecap="round"/><text x="320.83333333333337" y="472.08333333333337" class="dl" text-anchor="middle">25</text><circle cx="300" cy="300" r="10" fill="#F44336" stroke="#333" stroke-width="1"/><text x="300" y="285" class="nl" text-anchor="middle">n6</text><text x="300" y="322" class="dl" text-anchor="middle">d:0.0</text><circle cx="300" cy="258.33333333333337" r="6" fill="#2196F3" stroke="#333" stroke-width="1"/><text x="300" y="247.33333333333337" class="nl" text-anchor="middle">n2</text><text x="300" y="276.33333333333337" class="dl" text-anchor="middle">d:5.0</text><circle cx="258.33333333333337" cy="154.16666666666669" r="6" fill="#2196F3" stroke="#333" stroke-width="1"/><text x="258.33333333333337" y="143.16666666666669" class="nl" text-anchor="middle">n0</text><text x="258.33333333333337" y="172.16666666666669" class="dl" text-anchor="middle">d:22.5</text><circle cx="300" cy="91.66666666666667" r="8" fill="#4CAF50" stroke="#333" stroke-width="1"/><text x="300" y="78.66666666666667" class="nl" text-anchor="middle">s7</text><text x="300" y="111.66666666666667" class="dl" text-anchor="middle">d:35.0</text><text x="300" y="121.66666666666667" class="dl" text-anchor="middle">c:1.0</text><circle cx="154.16666666666669" cy="154.16666666666669" r="8" fill="#4CAF50" stroke="#333" stroke-width="1"/><text x="154.16666666666669" y="141.16666666666669" class="nl" text-anchor="middle">s6</text><text x="154.16666666666669" y="174.16666666666669" class="dl" text-anchor="middle">d:35.0</text><text x="154.16666666666669" y="184.16666666666669" class="dl" text-anchor="middle">c:1.0</text><circle cx="445.83333333333337" cy="258.33333333333337" r="6" fill="#2196F3" stroke="#333" stroke-width="1"/><text x="445.83333333333337" y="247.33333333333337" class="nl" text-anchor="middle">n1</text><text x="445.83333333333337" y="276.33333333333337" class="dl" text-anchor="middle">d:22.5</text><circle cx="445.83333333333337" cy="154.16666666666669" r="8" fill="#4CAF50" stroke="#333" stroke-width="1"/><text x="445.83333333333337" y="141.16666666666669" class="nl" text-anchor="middle">s8</text><text x="445.83333333333337" y="174.16666666666669" class="dl" text-anchor="middle">d:35.0</text><text x="445.83333333333337" y="184.16666666666669" class="dl" text-anchor="middle">c:1.0</text><circle cx="508.33333333333337" cy="300" r="8" fill="#4CAF50" stroke="#333" stroke-width="1"/><text x="508.33333333333337" y="287" class="nl" text-anchor="middle">s1</text><text x="508.33333333333337" y="320" class="dl" text-anchor="middle">d:35.0</text><text x="508.33333333333337" y="330" class="dl" text-anchor="middle">c:1.0</text><circle cx="300" cy="341.6666666666667" r="6" fill="#2196F3" stroke="#333" stroke-width="1"/><text x="300" y="330.6666666666667" class="nl" text-anchor="middle">n5</text><text x="300" y="359.6666666666667" class="dl" text-anchor="middle">d:5.0</text><circle cx="154.16666666666669" cy="341.6666666666667" r="6" fill="#2196F3" stroke="#333" stroke-width="1"/><text x="154.16666666666669" y="330.6666666666667" class="nl" text-anchor="middle">n3</text><text x="154.16666666666669" y="359.6666666666667" class="dl" text-anchor="middle">d:22.5</text><circle cx="91.66666666666667" cy="300" r="8" fill="#4CAF50" stroke="#333" stroke-width="1"/><text x="91.66666666666667" y="287" class="nl" text-anchor="middle">s5</text><text x="91.66666666666667" y="320" class="dl" text-anchor="middle">d:35.0</text><text x="91.66666666666667" y="330" class="dl" text-anchor="middle">c:1.0</text><circle cx="154.16666666666669" cy="445.83333333333337" r="8" fill="#4CAF50" stroke="#333" stroke-width="1"/><text x="154.16666666666669" y="432.83333333333337" class="nl" text-anchor="middle">s4</text><text x="154.16666666666669" y="465.83333333333337" class="dl" text-anchor="middle">d:35.0</text><text x="154.16666666666669" y="475.83333333333337" class="dl" text-anchor="middle">c:1.0</text><circle cx="341.6666666666667" cy="445.83333333333337" r="6" fill="#2196F3" stroke="#333" stroke-width="1"/><text x="341.6666666666667" y="434.83333333333337" class="nl" text-anchor="middle">n4</text><text x="341.6666666666667" y="463.83333333333337" class="dl" text-anchor="middle">d:22.5</text><circle cx="445.83333333333337" cy="445.83333333333337" r="8" fill="#4CAF50" stroke="#333" stroke-width="1"/><text x="445.83333333333337" y="432.83333333333337" class="nl" text-anchor="middle">s2</text><text x="445.83333333333337" y="465.83333333333337" class="dl" text-anchor="middle">d:35.0</text><text x="445.83333333333337" y="475.83333333333337" class="dl" text-anchor="middle">c:1.0</text><circle cx="300" cy="508.33333333333337" r="8" fill="#4CAF50" stroke="#333" stroke-width="1"/><text x="300" y="495.33333333333337" class="nl" text-anchor="middle">s3</text><text x="300" y="528.3333333333334" class="dl" text-anchor="middle">d:35.0</text><text x="300" y="538.3333333333334" class="dl" text-anchor="middle">c:1.0</text><g class="analysis-info"><rect x="10" y="10" width="220" height="140" fill="white" stroke="#ccc" stroke-width="1" rx="5"/><rect x="10" y="10" width="220" height="20" fill="#f0f0f0" stroke="#ccc" stroke-width="1" rx="5"/><text x="20" y="25" font-family="sans-serif" font-size="12" font-weight="bold" fill="#333">Clock Tree Analysis</text><text x="20" y="45" font-family="monospace" font-size="11" fill="#333"><tspan x="20" y="61">Delay Model: dyn physdes::dme_algorithm::DelayCalculator</tspan><tspan x="20" y="77">Max Delay: 35.000</tspan><tspan x="20" y="93">Min Delay: 35.000</tspan><tspan x="20" y="109">Skew: 0.000</tspan><tspan x="20" y="125">Total WL: 360</tspan><tspan x="20" y="141">Sinks: 8</tspan></text></g></g></svg>