<svg width="800" height="600" xmlns="http://www.w3.org/2000/svg"><rect width="100%" height="100%" fill="white"/><defs><marker id="ah" markerWidth="10" markerHeight="7" refX="9" refY="3.5" orient="auto"><polygon points="0 0, 10 3.5, 0 7" fill="black"/></marker></defs><line x1="50" y1="50" x2="121.42857142857143" y2="121.42857142857143" stroke="black" stroke-width="2" marker-end="url(#ah)"/><line x1="121.42857142857143" y1="121.42857142857143" x2="264.28571428571433" y2="121.42857142857143" stroke="black" stroke-width="2" marker-end="url(#ah)"/><line x1="121.42857142857143" y1="121.42857142857143" x2="121.42857142857143" y2="335.7142857142857" stroke="black" stroke-width="2" marker-end="url(#ah)"/><line x1="264.28571428571433" y1="121.42857142857143" x2="407.14285714285717" y2="192.85714285714286" stroke="black" stroke-width="2" marker-end="url(#ah)"/><line x1="407.14285714285717" y1="192.85714285714286" x2="550" y2="192.85714285714286" stroke="black" stroke-width="2" marker-end="url(#ah)"/><line x1="407.14285714285717" y1="192.85714285714286" x2="407.14285714285717" y2="407.14285714285717" stroke="black" stroke-width="2" marker-end="url(#ah)"/><line x1="407.14285714285717" y1="407.14285714285717" x2="621.4285714285714" y2="478.5714285714286" stroke="black" stroke-width="2" marker-end="url(#ah)"/><line x1="121.42857142857143" y1="335.7142857142857" x2="192.85714285714286" y2="550" stroke="black" stroke-width="2" marker-end="url(#ah)"/><rect x="192.85714285714286" y="192.85714285714286" width="142.85714285714286" height="107.14285714285714" fill="orange" stroke="black" stroke-width="1"/><rect x="442.8571428571429" y="264.28571428571433" width="71.42857142857144" height="142.85714285714283" fill="orange" stroke="black" stroke-width="1"/><rect x="157.14285714285717" y="442.8571428571429" width="71.42857142857142" height="142.8571428571429" fill="orange" stroke="black" stroke-width="1"/><circle cx="50" cy="50" r="8" fill="red" stroke="black" stroke-width="1"/><text x="60" y="54" font-family="Arial" font-size="10" fill="black">S</text><text x="50" y="37" font-family="Arial" font-size="8" fill="gray" text-anchor="middle">(0,0)</text><circle cx="264.28571428571433" cy="121.42857142857143" r="6" fill="green" stroke="black" stroke-width="1"/><text x="272.28571428571433" y="125.42857142857143" font-family="Arial" font-size="10" fill="black">T1</text><text x="264.28571428571433" y="110.42857142857143" font-family="Arial" font-size="8" fill="gray" text-anchor="middle">(30,10)</text><circle cx="121.42857142857143" cy="335.7142857142857" r="6" fill="green" stroke="black" stroke-width="1"/><text x="129.42857142857144" y="339.7142857142857" font-family="Arial" font-size="10" fill="black">T2</text><text x="121.42857142857143" y="324.7142857142857" font-family="Arial" font-size="8" fill="gray" text-anchor="middle">(10,40)</text><circle cx="121.42857142857143" cy="121.42857142857143" r="6" fill="blue" stroke="black" stroke-width="1"/><text x="129.42857142857144" y="125.42857142857143" font-family="Arial" font-size="10" fill="black">S1</text><text x="121.42857142857143" y="110.42857142857143" font-family="Arial" font-size="8" fill="gray" text-anchor="middle">(10,10)</text><circle cx="550" cy="192.85714285714286" r="6" fill="green" stroke="black" stroke-width="1"/><text x="558" y="196.85714285714286" font-family="Arial" font-size="10" fill="black">T3</text><text x="550" y="181.85714285714286" font-family="Arial" font-size="8" fill="gray" text-anchor="middle">(70,20)</text><circle cx="192.85714285714286" cy="550" r="6" fill="green" stroke="black" stroke-width="1"/><text x="200.85714285714286" y="554" font-family="Arial" font-size="10" fill="black">T4</text><text x="192.85714285714286" y="539" font-family="Arial" font-size="8" fill="gray" text-anchor="middle">(20,70)</text><circle cx="407.14285714285717" cy="407.14285714285717" r="6" fill="green" stroke="black" stroke-width="1"/><text x="415.14285714285717" y="411.14285714285717" font-family="Arial" font-size="10" fill="black">T5</text><text x="407.14285714285717" y="396.14285714285717" font-family="Arial" font-size="8" fill="gray" text-anchor="middle">(50,50)</text><circle cx="407.14285714285717" cy="192.85714285714286" r="6" fill="blue" stroke="black" stroke-width="1"/><text x="415.14285714285717" y="196.85714285714286" font-family="Arial" font-size="10" fill="black">S2</text><text x="407.14285714285717" y="181.85714285714286" font-family="Arial" font-size="8" fill="gray" text-anchor="middle">(50,20)</text><circle cx="621.4285714285714" cy="478.5714285714286" r="6" fill="green" stroke="black" stroke-width="1"/><text x="629.4285714285714" y="482.5714285714286" font-family="Arial" font-size="10" fill="black">T6</text><text x="621.4285714285714" y="467.5714285714286" font-family="Arial" font-size="8" fill="gray" text-anchor="middle">(80,60)</text><text x="20" y="20" font-family="Arial" font-size="12" font-weight="bold">Legend:</text><circle cx="20" cy="36" r="4" fill="red" stroke="black"/><text x="30" y="40" font-family="Arial" font-size="10">Source</text><circle cx="20" cy="56" r="4" fill="blue" stroke="black"/><text x="30" y="60" font-family="Arial" font-size="10">Steiner</text><circle cx="20" cy="76" r="4" fill="green" stroke="black"/><text x="30" y="80" font-family="Arial" font-size="10">Terminal</text><text x="20" y="110" font-family="Arial" font-size="10" font-weight="bold">Statistics:</text><text x="20" y="125" font-family="Arial" font-size="9">Total Nodes: 9</text><text x="20" y="140" font-family="Arial" font-size="9">Terminals: 6</text><text x="20" y="155" font-family="Arial" font-size="9">Steiner: 2</text><text x="20" y="170" font-family="Arial" font-size="9">Wirelength: 230</text></svg>